<svg id="visual" viewBox="0 0 960 540" width="960" height="540" xmlns="http://www.w3.org/2000/svg" xmlns:xlink="http://www.w3.org/1999/xlink" version="1.1"><rect x="0" y="0" width="960" height="540" fill="#001220"></rect><defs><linearGradient id="grad1_0" x1="43.8%" y1="0%" x2="100%" y2="100%"><stop offset="14.444444444444446%" stop-color="#fbae3c" stop-opacity="1"></stop><stop offset="85.55555555555554%" stop-color="#fbae3c" stop-opacity="1"></stop></linearGradient></defs><defs><linearGradient id="grad1_1" x1="43.8%" y1="0%" x2="100%" y2="100%"><stop offset="14.444444444444446%" stop-color="#fbae3c" stop-opacity="1"></stop><stop offset="85.55555555555554%" stop-color="#cc5867" stop-opacity="1"></stop></linearGradient></defs><defs><linearGradient id="grad1_2" x1="43.8%" y1="0%" x2="100%" y2="100%"><stop offset="14.444444444444446%" stop-color="#593762" stop-opacity="1"></stop><stop offset="85.55555555555554%" stop-color="#cc5867" stop-opacity="1"></stop></linearGradient></defs><defs><linearGradient id="grad1_3" x1="43.8%" y1="0%" x2="100%" y2="100%"><stop offset="14.444444444444446%" stop-color="#593762" stop-opacity="1"></stop><stop offset="85.55555555555554%" stop-color="#001220" stop-opacity="1"></stop></linearGradient></defs><defs><linearGradient id="grad2_0" x1="0%" y1="0%" x2="56.3%" y2="100%"><stop offset="14.444444444444446%" stop-color="#fbae3c" stop-opacity="1"></stop><stop offset="85.55555555555554%" stop-color="#fbae3c" stop-opacity="1"></stop></linearGradient></defs><defs><linearGradient id="grad2_1" x1="0%" y1="0%" x2="56.3%" y2="100%"><stop offset="14.444444444444446%" stop-color="#cc5867" stop-opacity="1"></stop><stop offset="85.55555555555554%" stop-color="#fbae3c" stop-opacity="1"></stop></linearGradient></defs><defs><linearGradient id="grad2_2" x1="0%" y1="0%" x2="56.3%" y2="100%"><stop offset="14.444444444444446%" stop-color="#cc5867" stop-opacity="1"></stop><stop offset="85.55555555555554%" stop-color="#593762" stop-opacity="1"></stop></linearGradient></defs><defs><linearGradient id="grad2_3" x1="0%" y1="0%" x2="56.3%" y2="100%"><stop offset="14.444444444444446%" stop-color="#001220" stop-opacity="1"></stop><stop offset="85.55555555555554%" stop-color="#593762" stop-opacity="1"></stop></linearGradient></defs><g transform="translate(960, 0)"><path d="M0 162C-19.8 155.8 -39.6 149.6 -58.9 142.3C-78.3 134.9 -97.2 126.5 -113.1 113.1C-129.1 99.8 -142 81.7 -149.7 62C-157.3 42.3 -159.7 21.2 -162 0L0 0Z" fill="#232745"></path><path d="M0 121.5C-14.8 116.9 -29.7 112.2 -44.2 106.7C-58.7 101.2 -72.9 94.8 -84.9 84.9C-96.8 74.9 -106.5 61.2 -112.3 46.5C-118 31.7 -119.7 15.9 -121.5 0L0 0Z" fill="#96446e"></path><path d="M0 81C-9.9 77.9 -19.8 74.8 -29.5 71.1C-39.1 67.5 -48.6 63.2 -56.6 56.6C-64.5 49.9 -71 40.8 -74.8 31C-78.7 21.2 -79.8 10.6 -81 0L0 0Z" fill="#f17c53"></path><path d="M0 40.5C-4.9 39 -9.9 37.4 -14.7 35.6C-19.6 33.7 -24.3 31.6 -28.3 28.3C-32.3 25 -35.5 20.4 -37.4 15.5C-39.3 10.6 -39.9 5.3 -40.5 0L0 0Z" fill="#fbae3c"></path></g><g transform="translate(0, 540)"><path d="M0 -162C17.3 -146.1 34.6 -130.1 49.4 -119.2C64.2 -108.2 76.4 -102.3 94.8 -94.8C113.1 -87.2 137.5 -78.1 149.7 -62C161.9 -45.9 161.9 -23 162 0L0 0Z" fill="#232745"></path><path d="M0 -121.5C13 -109.5 25.9 -97.6 37 -89.4C48.1 -81.2 57.3 -76.7 71.1 -71.1C84.8 -65.4 103.1 -58.5 112.3 -46.5C121.4 -34.5 121.5 -17.2 121.5 0L0 0Z" fill="#96446e"></path><path d="M0 -81C8.6 -73 17.3 -65.1 24.7 -59.6C32.1 -54.1 38.2 -51.1 47.4 -47.4C56.5 -43.6 68.7 -39 74.8 -31C80.9 -23 81 -11.5 81 0L0 0Z" fill="#f17c53"></path><path d="M0 -40.5C4.3 -36.5 8.6 -32.5 12.3 -29.8C16 -27.1 19.1 -25.6 23.7 -23.7C28.3 -21.8 34.4 -19.5 37.4 -15.5C40.5 -11.5 40.5 -5.7 40.5 0L0 0Z" fill="#fbae3c"></path></g></svg>